<svg id="svg" xmlns="http://www.w3.org/2000/svg" xmlns:xlink="http://www.w3.org/1999/xlink" width="400" height="340" viewBox="0, 0, 400,361"><g id="svgg" stroke="none" fill="#ffff"><path id="path0" d="M183.000 1.590 C 154.151 5.006,136.317 10.325,114.083 22.145 C 38.890 62.121,2.313 151.310,27.645 232.915 C 38.728 268.617,61.796 301.902,89.500 322.165 C 93.900 325.383,97.985 328.408,98.578 328.887 C 101.463 331.217,108.891 335.456,118.690 340.365 C 168.600 365.368,232.048 364.985,280.795 339.386 C 291.314 333.861,293.218 332.691,305.747 324.039 C 312.847 319.137,331.777 300.994,337.609 293.501 C 339.749 290.752,342.034 287.935,342.688 287.242 C 343.341 286.549,347.095 280.823,351.031 274.519 C 389.973 212.136,385.976 129.834,341.152 71.093 C 328.750 54.840,310.229 37.890,294.589 28.478 C 290.953 26.290,286.296 23.493,284.239 22.262 C 282.183 21.032,277.125 18.619,273.000 16.901 C 268.875 15.183,263.491 12.872,261.035 11.766 C 245.385 4.715,203.138 -0.794,183.000 1.590 M225.134 8.571 C 246.136 11.463,268.619 19.687,290.000 32.297 C 304.316 40.741,325.681 60.139,335.726 73.814 C 338.831 78.041,341.629 81.725,341.945 82.000 C 348.941 88.101,364.593 125.069,369.206 146.388 C 372.212 160.279,372.489 197.587,369.689 211.500 C 358.796 265.631,321.442 314.460,274.377 336.091 C 259.968 342.713,259.451 342.926,252.837 344.967 C 143.308 378.765,34.594 305.722,26.005 192.561 C 17.578 81.549,113.239 -6.839,225.134 8.571 M185.500 70.850 C 159.992 82.960,159.758 119.895,185.115 131.385 C 191.676 134.358,194.596 138.000,190.418 138.000 C 188.283 138.000,188.663 182.031,190.830 185.835 C 193.905 191.230,202.462 192.082,207.421 187.486 L 210.000 185.095 210.000 161.548 C 210.000 146.516,209.638 138.000,209.000 138.000 C 205.379 138.000,208.820 134.129,215.159 131.071 C 235.418 121.298,239.936 95.242,224.365 77.974 C 215.284 67.903,198.274 64.785,185.500 70.850 M212.216 76.714 C 225.667 84.035,231.007 99.053,225.034 112.766 C 221.598 120.654,210.921 128.776,203.750 128.956 C 202.349 128.991,202.000 129.898,202.000 133.500 C 202.000 137.333,201.704 138.000,200.000 138.000 C 198.302 138.000,198.000 137.333,198.000 133.588 C 198.000 129.215,197.964 129.170,193.975 128.496 C 180.414 126.205,169.740 109.675,172.850 95.778 C 176.936 77.520,196.388 68.100,212.216 76.714 M191.898 80.800 C 187.828 84.437,187.087 91.299,190.710 91.814 C 192.421 92.058,193.247 91.343,194.375 88.645 C 196.229 84.208,199.371 82.392,202.626 83.876 C 206.186 85.498,205.664 89.516,201.001 96.380 C 194.762 105.564,193.475 113.509,198.340 112.803 C 199.805 112.590,200.629 111.502,201.107 109.149 C 201.482 107.306,203.208 103.931,204.944 101.649 C 211.460 93.081,212.662 88.312,209.807 82.360 C 207.337 77.212,196.928 76.305,191.898 80.800 M196.701 117.632 C 195.519 118.814,195.922 121.756,197.341 122.300 C 199.356 123.074,201.244 121.504,200.837 119.392 C 200.466 117.466,197.942 116.392,196.701 117.632 M168.196 131.504 C 164.729 132.760,161.129 134.417,160.196 135.187 C 159.263 135.956,157.197 137.240,155.605 138.040 C 138.065 146.846,129.039 167.300,129.015 198.300 C 128.991 228.991,121.353 226.000,199.758 226.000 C 278.431 226.000,271.011 228.781,270.983 199.300 C 270.947 162.609,257.857 140.412,230.755 131.088 L 225.278 129.203 222.389 131.515 L 219.500 133.826 222.500 134.551 C 224.150 134.950,225.950 135.588,226.500 135.970 C 227.050 136.352,229.075 137.284,231.000 138.042 C 255.186 147.558,265.000 165.713,265.000 200.942 C 265.000 219.233,264.599 220.000,255.042 220.000 L 249.084 220.000 248.792 212.355 C 248.278 198.888,242.000 199.135,242.000 212.622 L 242.000 220.000 199.500 220.000 L 157.000 220.000 157.000 211.969 C 157.000 205.722,156.664 203.808,155.487 203.357 C 152.344 202.150,151.000 204.925,151.000 212.622 L 151.000 220.000 145.000 220.000 C 135.217 220.000,134.997 219.533,135.015 198.750 C 135.041 168.320,141.921 153.249,160.799 142.274 C 166.803 138.783,169.497 137.528,177.916 134.299 L 180.332 133.373 177.416 131.297 L 174.500 129.221 168.196 131.504 M204.000 162.878 C 204.000 183.186,203.670 184.516,198.805 183.827 L 196.500 183.500 196.229 163.750 L 195.958 144.000 199.979 144.000 L 204.000 144.000 204.000 162.878 M60.495 239.750 C 58.952 243.463,56.672 248.750,55.427 251.500 C 49.214 265.231,49.064 266.000,52.586 266.000 C 54.744 266.000,55.525 265.165,57.302 260.958 L 59.433 255.916 65.337 256.208 L 71.241 256.500 72.893 261.000 C 74.234 264.652,75.059 265.560,77.273 265.816 C 80.699 266.214,80.805 266.965,75.559 253.716 C 65.896 229.308,65.129 228.598,60.495 239.750 M82.000 248.300 C 82.000 258.867,82.371 263.971,83.200 264.800 C 84.567 266.167,88.871 266.369,90.784 265.155 C 92.569 264.022,91.194 261.000,88.893 261.000 C 87.126 261.000,87.000 260.070,87.000 247.000 L 87.000 233.000 84.500 233.000 L 82.000 233.000 82.000 248.300 M208.879 235.382 C 192.593 246.691,204.960 272.756,222.633 264.370 C 228.353 261.656,230.353 257.794,226.976 255.987 C 225.265 255.072,224.554 255.376,222.387 257.952 C 215.201 266.492,202.800 255.594,207.340 244.728 C 210.147 238.011,218.777 236.177,222.756 241.452 C 224.377 243.601,229.000 243.292,229.000 241.036 C 229.000 235.099,214.966 231.155,208.879 235.382 M271.000 236.000 C 271.000 238.533,271.389 239.000,273.500 239.000 C 275.611 239.000,276.000 238.533,276.000 236.000 C 276.000 233.467,275.611 233.000,273.500 233.000 C 271.389 233.000,271.000 233.467,271.000 236.000 M89.977 243.440 C 90.487 244.782,92.219 248.719,93.825 252.190 C 95.431 255.660,97.343 260.188,98.074 262.250 C 100.010 267.717,103.013 267.398,105.460 261.465 C 107.510 256.494,108.156 256.615,109.976 262.307 C 112.070 268.856,114.673 267.157,119.639 256.000 C 125.574 242.662,125.903 241.000,122.608 241.000 C 121.174 241.000,120.000 241.420,120.000 241.934 C 120.000 243.429,113.709 257.000,113.016 257.000 C 110.954 257.000,110.470 251.263,112.185 247.167 C 114.448 241.765,114.476 242.000,111.567 242.000 C 109.928 242.000,108.904 242.729,108.426 244.234 L 107.717 246.467 106.891 244.234 C 106.322 242.695,105.243 242.000,103.425 242.000 C 101.732 242.000,100.953 242.448,101.252 243.250 C 104.358 251.588,104.404 251.913,102.932 255.022 L 101.479 258.090 98.134 249.545 C 95.016 241.581,94.593 241.000,91.919 241.000 C 89.290 241.000,89.127 241.205,89.977 243.440 M129.250 242.491 C 126.144 243.841,124.992 246.259,126.894 247.434 C 127.385 247.738,129.421 247.304,131.417 246.470 C 135.967 244.569,140.000 246.501,140.000 250.582 C 140.000 250.812,137.575 251.000,134.611 251.000 C 127.576 251.000,124.600 253.230,124.600 258.500 C 124.600 264.752,131.966 268.229,138.173 264.907 C 139.650 264.117,140.517 264.117,141.307 264.907 C 145.389 268.989,147.030 259.166,144.422 246.268 C 143.501 241.711,135.581 239.739,129.250 242.491 M146.000 242.045 C 146.000 242.619,148.177 247.968,150.838 253.931 C 155.859 265.184,156.048 270.000,151.468 270.000 C 150.569 270.000,150.000 270.969,150.000 272.500 C 150.000 274.587,150.475 275.000,152.878 275.000 C 156.536 275.000,157.149 274.207,160.993 264.500 C 162.736 260.100,164.772 255.150,165.518 253.500 C 170.647 242.161,170.862 240.762,167.410 241.184 C 165.168 241.457,164.387 242.624,161.606 249.855 L 158.393 258.210 154.518 249.605 C 150.932 241.640,146.000 237.263,146.000 242.045 M174.242 242.034 C 169.433 243.966,168.777 252.113,173.278 254.000 C 174.500 254.512,177.412 255.414,179.750 256.004 C 184.144 257.113,185.101 258.842,182.511 260.991 C 180.643 262.541,174.699 261.547,172.903 259.383 C 171.596 257.808,169.000 259.710,169.000 262.242 C 169.000 263.706,175.724 266.000,180.013 266.000 C 190.997 266.000,192.152 253.384,181.335 251.557 C 175.756 250.614,174.237 249.480,175.607 247.278 C 177.134 244.825,179.434 244.571,183.184 246.442 C 186.625 248.159,188.705 247.280,187.658 244.552 C 186.473 241.462,179.106 240.079,174.242 242.034 M231.166 251.612 C 231.670 265.227,235.424 268.953,244.480 264.827 C 246.449 263.930,247.330 263.930,248.227 264.827 C 250.982 267.582,253.300 266.229,252.642 262.250 C 252.301 260.188,252.017 254.563,252.011 249.750 C 252.000 241.086,251.975 241.000,249.500 241.000 C 247.047 241.000,247.000 241.146,247.000 248.811 C 247.000 257.510,245.137 261.000,240.496 261.000 C 237.027 261.000,236.000 258.274,236.000 249.066 C 236.000 241.036,235.988 241.000,233.387 241.000 L 230.773 241.000 231.166 251.612 M256.000 253.500 L 256.000 266.000 258.500 266.000 C 260.946 266.000,261.000 265.837,261.000 258.452 C 261.000 250.387,263.518 246.000,268.146 246.000 C 269.457 246.000,270.000 245.268,270.000 243.500 C 270.000 240.609,269.224 240.462,264.468 242.449 C 261.440 243.714,261.000 243.714,261.000 242.449 C 261.000 241.570,260.016 241.000,258.500 241.000 L 256.000 241.000 256.000 253.500 M271.000 253.500 L 271.000 266.000 273.500 266.000 L 276.000 266.000 276.000 253.500 L 276.000 241.000 273.500 241.000 L 271.000 241.000 271.000 253.500 M285.000 242.698 C 278.579 246.004,277.158 256.585,282.328 262.594 C 287.683 268.820,299.685 265.945,302.148 257.846 C 305.518 246.761,295.056 237.519,285.000 242.698 M305.006 248.750 C 305.017 264.289,309.708 269.531,319.180 264.590 C 321.477 263.391,321.936 263.392,322.398 264.596 C 323.747 268.111,327.287 266.155,326.642 262.250 C 326.301 260.188,326.017 254.563,326.011 249.750 C 326.000 241.086,325.975 241.000,323.500 241.000 C 321.055 241.000,321.000 241.164,321.000 248.535 C 321.000 257.534,319.310 261.000,314.920 261.000 C 310.982 261.000,310.000 258.617,310.000 249.066 C 310.000 241.129,309.960 241.000,307.500 241.000 C 305.048 241.000,305.000 241.149,305.006 248.750 M332.635 243.073 C 326.972 247.527,329.249 252.994,337.828 255.542 C 343.728 257.294,344.620 258.237,342.438 260.419 C 339.933 262.924,334.010 261.916,331.750 258.600 C 330.925 257.391,329.043 259.542,329.015 261.724 C 328.974 265.061,339.737 267.260,344.316 264.850 C 351.681 260.973,349.001 253.612,339.292 251.054 C 334.291 249.737,333.434 248.709,335.562 246.581 C 337.598 244.545,339.488 244.585,343.138 246.741 C 345.719 248.265,346.202 248.296,347.027 246.991 C 350.163 242.030,338.126 238.753,332.635 243.073 M66.977 246.188 C 69.691 251.807,69.622 252.000,64.893 252.000 C 62.026 252.000,60.927 251.623,61.252 250.750 C 61.508 250.063,62.321 247.813,63.060 245.750 C 64.710 241.139,64.527 241.118,66.977 246.188 M295.602 248.515 C 299.219 254.035,296.374 261.000,290.503 261.000 C 284.695 261.000,282.082 253.708,286.073 248.635 C 288.845 245.110,293.334 245.054,295.602 248.515 M137.802 254.644 C 140.922 255.480,140.347 258.959,136.759 260.967 C 134.680 262.130,133.592 262.234,132.259 261.398 C 129.498 259.668,129.454 256.150,132.180 255.057 C 135.076 253.896,135.023 253.900,137.802 254.644 "></path></g></svg>